<svg width="16" height="16" viewBox="0 0 16 16" fill="none" xmlns="http://www.w3.org/2000/svg">
<path d="M13.792 2.86544H13.472L10.768 0.161968C10.552 -0.0539894 10.2 -0.0539894 9.976 0.161968C9.76 0.377926 9.76 0.729857 9.976 0.953813L11.888 2.86544H4.112L6.024 0.953813C6.24 0.737856 6.24 0.385925 6.024 0.161968C5.808 -0.0539894 5.456 -0.0539894 5.232 0.161968L2.536 2.86544H2.216C1.496 2.86544 0 2.86544 0 4.91304C0 5.68889 0.16 6.20079 0.496 6.53673C0.688 6.73669 0.92 6.84067 1.168 6.89666C1.4 6.95265 1.648 6.96065 1.888 6.96065H14.112C14.36 6.96065 14.592 6.94465 14.816 6.89666C15.488 6.73669 16 6.25678 16 4.91304C16 2.86544 14.504 2.86544 13.792 2.86544Z" fill="white"/>
<path d="M13.6404 8.0015H2.29642C1.80042 8.0015 1.42442 8.44141 1.50442 8.92931L2.17642 13.0405C2.40042 14.4162 3.00042 15.9999 5.66442 15.9999H10.1524C12.8484 15.9999 13.3284 14.6482 13.6164 13.1365L14.4244 8.95331C14.5204 8.45741 14.1444 8.0015 13.6404 8.0015ZM6.88839 13.1605C6.88839 13.4724 6.64039 13.7204 6.33642 13.7204C6.02442 13.7204 5.77642 13.4724 5.77642 13.1605V10.521C5.77642 10.2171 6.02442 9.96111 6.33642 9.96111C6.64039 9.96111 6.88839 10.2171 6.88839 10.521V13.1605ZM10.3124 13.1605C10.3124 13.4724 10.0644 13.7204 9.75239 13.7204C9.44839 13.7204 9.19239 13.4724 9.19239 13.1605V10.521C9.19239 10.2171 9.44839 9.96111 9.75239 9.96111C10.0644 9.96111 10.3124 10.2171 10.3124 10.521V13.1605Z" fill="white"/>
</svg>
