<svg width="167" height="167" viewBox="0 0 167 167" fill="none" xmlns="http://www.w3.org/2000/svg">
<path d="M20.875 41.75H34.7917H146.125" stroke="white" stroke-width="13.9167" stroke-linecap="round" stroke-linejoin="round"/>
<path d="M132.208 41.75V139.167C132.208 142.858 130.742 146.397 128.132 149.007C125.522 151.617 121.983 153.083 118.292 153.083H48.7084C45.0175 153.083 41.4777 151.617 38.8678 149.007C36.258 146.397 34.7917 142.858 34.7917 139.167V41.75M55.6667 41.75V27.8334C55.6667 24.1424 57.133 20.6027 59.7428 17.9928C62.3527 15.3829 65.8925 13.9167 69.5834 13.9167H97.4167C101.108 13.9167 104.647 15.3829 107.257 17.9928C109.867 20.6027 111.333 24.1424 111.333 27.8334V41.75" stroke="white" stroke-width="13.9167" stroke-linecap="round" stroke-linejoin="round"/>
<path d="M69.5833 76.5417V118.292" stroke="white" stroke-width="13.9167" stroke-linecap="round" stroke-linejoin="round"/>
<path d="M97.4167 76.5417V118.292" stroke="white" stroke-width="13.9167" stroke-linecap="round" stroke-linejoin="round"/>
</svg>
