<svg width="58" height="25" viewBox="0 0 58 25" fill="none" xmlns="http://www.w3.org/2000/svg">
<path d="M0.960111 19.1035H0.468531C0.537524 18.3273 0.994607 16.0505 1.83978 12.2731C2.68495 8.47847 3.21103 5.6411 3.41801 3.76102C3.41801 3.48505 3.32314 3.15733 3.13341 2.77787C2.96093 2.38115 2.77982 2.06206 2.59009 1.82058L2.33136 1.45836L2.40898 1.07027C3.37489 0.777049 5.03936 0.630438 7.40239 0.630438C7.62662 1.0444 7.73874 1.63947 7.73874 2.41565C7.73874 3.17458 7.30753 5.33063 6.44511 8.8838H6.57447C8.10958 8.8838 9.20485 8.30598 9.86029 7.15034C10.533 5.97745 11.0332 4.01113 11.3609 1.25138C12.5855 0.837419 13.8705 0.630438 15.2159 0.630438C15.2504 0.751177 15.259 1.0444 15.2418 1.51011C15.2418 1.97581 15.1556 2.57951 14.9831 3.32119C14.8106 4.04562 14.5519 4.81318 14.2069 5.62385C13.8792 6.43453 13.3876 7.20208 12.7322 7.92652C12.094 8.6337 11.3523 9.2029 10.5071 9.63411C11.5075 13.0493 12.3699 15.2743 13.0944 16.3092C13.4048 16.7405 13.6463 16.9561 13.8188 16.9561C14.1293 16.9561 14.6122 16.8008 15.2677 16.4904L15.5781 16.3351L16.1732 17.2924C15.535 17.8789 14.7933 18.3618 13.9482 18.7413C13.1202 19.1207 12.3354 19.3105 11.5938 19.3105C10.8521 19.3105 10.2656 19.0172 9.83442 18.4308C9.42046 17.8444 9.06687 17.1199 8.77364 16.2575C8.49767 15.3778 8.20444 14.3429 7.89397 13.1528C7.5835 11.9626 7.37652 11.0657 7.27303 10.462C7.11779 10.4793 6.71246 10.4879 6.05702 10.4879C5.03936 14.8 4.53053 17.4994 4.53053 18.586C3.85784 18.931 2.6677 19.1035 0.960111 19.1035Z" fill="#450EB0"/>
<path d="M21.885 9.14253C21.885 9.86696 21.6521 11.1175 21.1864 12.8941C20.7207 14.6534 20.4879 15.809 20.4879 16.361C20.4879 16.8957 20.5655 17.163 20.7207 17.163C20.8242 17.163 21.2209 16.9992 21.9109 16.6715L22.2213 16.5162L22.6612 17.4218C22.5059 17.5598 22.299 17.7322 22.0402 17.9392C21.7815 18.1462 21.2986 18.4308 20.5914 18.793C19.8842 19.138 19.2287 19.3105 18.625 19.3105C18.0214 19.3105 17.547 19.1294 17.2021 18.7671C16.8571 18.3877 16.6846 17.8875 16.6846 17.2665C16.6846 16.6283 16.9002 15.5072 17.3314 13.9031C17.7626 12.2817 17.9782 11.2296 17.9782 10.7466C17.9782 10.0222 17.754 9.34089 17.3055 8.7027L17.0727 8.39222L17.0986 8.05588C18.0127 7.79715 19.4961 7.66779 21.5487 7.66779C21.7729 7.92652 21.885 8.4181 21.885 9.14253ZM18.9355 4.84767C18.5905 4.50271 18.4181 4.04562 18.4181 3.47643C18.4181 2.90723 18.6509 2.40702 19.1166 1.97581C19.5996 1.5446 20.1515 1.329 20.7725 1.329C21.3934 1.329 21.8764 1.50148 22.2213 1.84645C22.5663 2.19142 22.7388 2.6485 22.7388 3.2177C22.7388 3.76965 22.4887 4.26123 21.9885 4.69244C21.5055 5.12365 20.9622 5.33926 20.3585 5.33926C19.7548 5.33926 19.2805 5.1754 18.9355 4.84767Z" fill="#0094FF"/>
<path d="M35.8423 17.4218C34.3762 18.6809 33.0825 19.3105 31.9614 19.3105C30.8575 19.3105 30.2193 18.7585 30.0468 17.6546C29.5293 18.1721 28.9515 18.5774 28.3133 18.8706C27.6751 19.1639 27.1146 19.3105 26.6316 19.3105C25.8037 19.3105 25.0965 18.9483 24.5101 18.2238C23.9236 17.4994 23.6304 16.3782 23.6304 14.8604C23.6304 12.5836 24.1133 10.7984 25.0793 9.50475C26.0452 8.19387 27.1318 7.53843 28.3392 7.53843C29.5638 7.53843 30.5901 7.8144 31.418 8.36635C31.9527 5.57211 32.2201 3.37294 32.2201 1.76883L32.0907 0.682184C33.3844 0.233725 34.6521 0.00949509 35.894 0.00949509C36.032 0.302718 36.101 0.639062 36.101 1.01853C36.101 2.27766 35.7215 4.83905 34.9626 8.7027C34.2037 12.5491 33.8242 15.1622 33.8242 16.5421C33.8242 16.9561 33.9191 17.163 34.1088 17.163C34.2123 17.163 34.54 16.9992 35.092 16.6715L35.3507 16.5162L35.8423 17.4218ZM29.607 9.06491C29.0033 9.06491 28.4772 9.65998 28.0287 10.8501C27.5975 12.0403 27.3819 13.2218 27.3819 14.3947C27.3819 15.5503 27.4595 16.292 27.6148 16.6197C27.7873 16.9474 28.0374 17.1113 28.3651 17.1113C28.9343 17.1113 29.4948 16.8784 30.0468 16.4127C30.0985 15.7228 30.4866 13.4288 31.2111 9.53062C30.6246 9.22015 30.0899 9.06491 29.607 9.06491Z" fill="#8300C0"/>
<path d="M39.1786 7.53843L44.1203 7.74541C44.6722 7.74541 45.1983 7.71954 45.6985 7.66779L45.9314 8.49572L45.4398 9.06491C44.5084 10.1861 43.4735 11.5314 42.3351 13.101C41.1967 14.6534 40.5757 15.4986 40.4723 15.6366C42.0591 16.2058 43.2579 16.4904 44.0685 16.4904C44.3273 16.4904 44.5084 16.4386 44.6119 16.3351C44.7671 16.1799 44.9655 15.8435 45.2069 15.3261L45.9831 15.5072C45.8624 17.4563 45.4657 18.6982 44.793 19.2329C44.4653 19.4916 44.0599 19.6209 43.577 19.6209C43.094 19.6209 42.3178 19.3277 41.2484 18.7413C40.1963 18.1376 39.3425 17.7495 38.687 17.577C37.9626 18.5602 37.4624 19.0517 37.1864 19.0517C36.9105 19.0517 36.5655 18.8275 36.1515 18.3791C35.7376 17.9133 35.5306 17.5511 35.5306 17.2924C35.5306 17.0337 35.7979 16.5938 36.3326 15.9729C36.8846 15.3347 37.4538 15.0156 38.0402 15.0156C38.161 15.0156 38.2558 15.0242 38.3248 15.0415C39.7219 13.6789 40.9811 12.1351 42.1022 10.4103C40.6189 10.4275 39.584 10.4793 38.9975 10.5655C38.4111 10.6345 37.8419 10.8243 37.2899 11.1347C37.1519 10.531 37.0829 9.91009 37.0829 9.27189C37.0829 8.61645 37.1088 8.15075 37.1606 7.87477C37.3848 7.65054 38.0575 7.53843 39.1786 7.53843Z" fill="#E800B5"/>
<path d="M50.1401 21.7942C49.5709 22.1392 49.2863 22.4756 49.2863 22.8033C49.2863 23.131 49.4674 23.2949 49.8297 23.2949C50.2091 23.2949 50.6317 23.1137 51.0974 22.7515C51.5631 22.4066 51.9512 21.8374 52.2617 21.0439C51.4338 21.1992 50.7266 21.4493 50.1401 21.7942ZM48.8982 19.1035C47.4494 19.1035 46.7249 18.3101 46.7249 16.7232C46.7249 16.3437 46.8974 15.2485 47.2424 13.4374C47.5874 11.6263 47.7598 10.1171 47.7598 8.90968C47.7598 8.65095 47.7253 8.40947 47.6564 8.18524C48.5878 7.82303 49.8641 7.64192 51.4855 7.64192C51.5717 7.8834 51.6149 8.29736 51.6149 8.8838C51.6149 9.47025 51.4251 10.6863 51.0457 12.5318C50.6662 14.3774 50.4765 15.5676 50.4765 16.1023C50.4765 16.637 50.7007 16.9043 51.1492 16.9043C51.6839 16.9043 52.3307 16.637 53.0896 16.1023C53.1758 15.0846 53.5208 12.4025 54.1245 8.05588C54.7282 7.8144 55.8149 7.69366 57.3845 7.69366H57.876C57.5483 8.9873 57.2292 10.8501 56.9188 13.2822C56.6083 15.7142 56.3582 17.4045 56.1684 18.3532C55.8062 20.2505 55.1335 21.7942 54.1504 22.9844C53.1845 24.1918 51.9167 24.7955 50.3471 24.7955C49.7262 24.7955 49.157 24.6316 48.6395 24.3039C48.1393 23.9762 47.8892 23.5536 47.8892 23.0361C47.8892 22.3462 48.3118 21.7166 49.157 21.1474C50.0021 20.5782 51.1405 20.1384 52.5722 19.8279C52.7274 19.069 52.8481 18.3359 52.9344 17.6288C51.5372 18.6119 50.1919 19.1035 48.8982 19.1035Z" fill="#3E00C2"/>
</svg>
