<svg width="80" height="82" viewBox="0 0 80 82" fill="none" xmlns="http://www.w3.org/2000/svg">
<path d="M42.3247 42.3247V0C25.4968 0 25.4968 16.0405 25.4968 20.2753C25.4968 24.5101 25.4968 42.3247 42.3247 42.3247Z" fill="#8300C0"/>
<path d="M37.6749 41.9447L79.9995 41.9447C79.9995 25.1168 63.959 25.1168 59.7242 25.1168C55.4894 25.1168 37.6749 25.1168 37.6749 41.9447Z" fill="#E800B5"/>
<path d="M42.3247 39.2451L0 39.2451C0 56.0729 16.0405 56.0729 20.2753 56.0729C24.5101 56.0729 42.3247 56.0729 42.3247 39.2451Z" fill="#00B2EA"/>
<path d="M37.7344 81.0797V38.7551C54.0521 38.7551 54.0521 54.7956 54.0521 59.0303C54.0521 63.2651 54.0521 81.0797 37.7344 81.0797Z" fill="#450EB0"/>
<circle cx="37.974" cy="40.0267" r="3.07898" fill="#D9D9D9"/>
</svg>
