<svg width="651" height="289" viewBox="0 0 651 289" fill="none" xmlns="http://www.w3.org/2000/svg">
<path d="M81.4201 119.784L73.3728 119.066L75.1451 86.1577C74.3148 86.3493 73.5484 86.5728 72.8459 86.8283L71.4088 78.6851C73.1013 78.3339 75.193 77.9666 77.6839 77.5834C80.1747 77.2002 82.7454 77.0086 85.3959 77.0086C87.4397 77.0086 89.5154 77.2321 91.623 77.6792C93.7307 78.0943 95.7425 78.7969 97.6586 79.7868C99.6065 80.7449 101.331 82.0382 102.832 83.6668C104.365 85.2955 105.562 87.2913 106.424 89.6545C107.319 92.0176 107.766 94.8118 107.766 98.0371C107.766 102.572 107.031 106.452 105.562 109.677C104.125 112.87 102.018 115.313 99.2393 117.006C96.493 118.698 93.1718 119.545 89.2759 119.545C86.6892 119.545 84.1345 119.066 81.6117 118.108C81.5479 118.746 81.484 119.305 81.4201 119.784ZM85.0606 85.056C84.6135 85.056 84.1505 85.056 83.6715 85.056C83.3521 90.9957 83.0647 96.0572 82.8093 100.241C82.5538 104.392 82.3302 107.857 82.1386 110.635C83.0967 110.954 84.1505 111.242 85.3001 111.497C86.4817 111.721 87.7111 111.833 88.9885 111.833C91.5751 111.833 93.6508 111.178 95.2156 109.869C96.8123 108.559 97.9619 106.835 98.6645 104.695C99.367 102.524 99.7183 100.177 99.7183 97.6539C99.7183 95.6421 99.4149 93.9336 98.8082 92.5285C98.2014 91.1234 97.4031 89.9578 96.4131 89.0317C95.4551 88.1057 94.4013 87.3871 93.2517 86.8762C92.1021 86.3333 90.9684 85.9341 89.8507 85.6787C88.7649 85.4232 87.791 85.2635 86.9287 85.1997C86.0665 85.1039 85.4438 85.056 85.0606 85.056ZM126.345 119.832C123.28 119.832 120.581 119.225 118.25 118.012C115.951 116.83 114.146 115.17 112.837 113.03C111.56 110.891 110.921 108.416 110.921 105.605C110.921 103.913 111.209 102.141 111.783 100.288C112.358 98.4044 113.284 96.648 114.562 95.0194C115.839 93.3907 117.516 92.0655 119.591 91.0436C121.699 90.0217 124.254 89.5107 127.255 89.5107C129.427 89.5107 131.247 89.7503 132.716 90.2293C134.217 90.7083 135.43 91.331 136.357 92.0974C137.315 92.8638 138.033 93.6781 138.512 94.5404C139.023 95.4026 139.358 96.2329 139.518 97.0312C139.71 97.7976 139.805 98.4363 139.805 98.9472C139.805 102.045 138.496 104.44 135.878 106.132C133.291 107.793 129.619 108.623 124.86 108.623C123.775 108.623 122.737 108.575 121.747 108.48C120.789 108.384 119.895 108.272 119.064 108.144C119.671 109.741 120.677 110.922 122.082 111.689C123.487 112.423 124.94 112.791 126.441 112.791C128.613 112.791 130.529 112.407 132.189 111.641C133.85 110.843 135.415 109.629 136.883 108.001L141.147 114.132C140.125 114.962 138.975 115.824 137.698 116.719C136.452 117.613 134.92 118.347 133.099 118.922C131.279 119.529 129.028 119.832 126.345 119.832ZM127.399 96.6959C125.515 96.6959 123.854 97.1749 122.417 98.1329C120.98 99.0909 119.927 100.352 119.256 101.917C120.054 102.045 120.837 102.157 121.603 102.252C122.401 102.316 123.184 102.348 123.95 102.348C124.653 102.348 125.451 102.284 126.345 102.157C127.271 102.029 128.166 101.837 129.028 101.582C129.922 101.326 130.656 101.007 131.231 100.624C131.806 100.209 132.093 99.7296 132.093 99.1868C132.093 98.9313 131.966 98.6119 131.71 98.2287C131.455 97.8455 130.992 97.4942 130.321 97.1749C129.65 96.8556 128.676 96.6959 127.399 96.6959ZM144.714 85.056C144.714 84.7686 144.698 84.4811 144.666 84.1937C144.666 83.8744 144.666 83.5231 144.666 83.1399C144.666 82.118 144.698 81.0323 144.762 79.8827C144.826 78.733 144.89 77.759 144.954 76.9607L153.48 77.1044C153.384 78.1901 153.272 79.4196 153.145 80.7928C153.049 82.1659 152.985 83.587 152.953 85.056H144.714ZM144.523 119.353C144.427 117.373 144.363 115.266 144.331 113.03C144.299 110.763 144.283 108.496 144.283 106.228C144.283 103.258 144.315 100.368 144.379 97.5581C144.443 94.7479 144.523 92.1932 144.618 89.894L152.857 89.8461C152.73 91.315 152.65 93.1353 152.618 95.3068C152.586 97.4463 152.57 99.6977 152.57 102.061C152.57 104.392 152.586 106.691 152.618 108.959C152.65 111.226 152.682 113.286 152.714 115.138C152.778 116.958 152.825 118.363 152.857 119.353H144.523ZM163.092 120.072L157.057 114.85C158.59 113.062 160.234 111.258 161.991 109.438C163.747 107.585 165.551 105.749 167.404 103.929C165.168 101.981 163.076 100.241 161.129 98.7077C159.212 97.143 157.728 96.0413 156.674 95.4026L161.464 89.0796C163.188 90.3251 165.056 91.7461 167.068 93.3428C169.08 94.9395 171.108 96.632 173.152 98.4203C175.036 96.6959 176.888 95.0194 178.708 93.3907C180.528 91.7302 182.269 90.1654 183.929 88.6964L189.486 94.4446C188.464 95.179 187.011 96.3925 185.127 98.085C183.243 99.7456 181.199 101.598 178.996 103.642C181.103 105.558 183.083 107.458 184.935 109.342C186.819 111.194 188.48 112.918 189.917 114.515L184.073 119.832C183.498 119.13 182.668 118.219 181.582 117.102C180.496 115.984 179.235 114.739 177.798 113.365C176.393 111.992 174.892 110.587 173.295 109.15C171.763 110.651 170.31 112.104 168.936 113.509C167.595 114.914 166.414 116.176 165.392 117.293C164.37 118.443 163.603 119.369 163.092 120.072ZM208.161 119.832C205.095 119.832 202.396 119.225 200.065 118.012C197.766 116.83 195.962 115.17 194.652 113.03C193.375 110.891 192.736 108.416 192.736 105.605C192.736 103.913 193.024 102.141 193.599 100.288C194.173 98.4044 195.1 96.648 196.377 95.0194C197.654 93.3907 199.331 92.0655 201.407 91.0436C203.514 90.0217 206.069 89.5107 209.071 89.5107C211.242 89.5107 213.062 89.7503 214.531 90.2293C216.032 90.7083 217.246 91.331 218.172 92.0974C219.13 92.8638 219.848 93.6781 220.327 94.5404C220.838 95.4026 221.174 96.2329 221.333 97.0312C221.525 97.7976 221.621 98.4363 221.621 98.9472C221.621 102.045 220.311 104.44 217.693 106.132C215.106 107.793 211.434 108.623 206.676 108.623C205.59 108.623 204.552 108.575 203.562 108.48C202.604 108.384 201.71 108.272 200.88 108.144C201.486 109.741 202.492 110.922 203.897 111.689C205.302 112.423 206.755 112.791 208.256 112.791C210.428 112.791 212.344 112.407 214.004 111.641C215.665 110.843 217.23 109.629 218.699 108.001L222.962 114.132C221.94 114.962 220.79 115.824 219.513 116.719C218.268 117.613 216.735 118.347 214.915 118.922C213.094 119.529 210.843 119.832 208.161 119.832ZM209.214 96.6959C207.33 96.6959 205.67 97.1749 204.233 98.1329C202.796 99.0909 201.742 100.352 201.071 101.917C201.87 102.045 202.652 102.157 203.418 102.252C204.217 102.316 204.999 102.348 205.765 102.348C206.468 102.348 207.266 102.284 208.161 102.157C209.087 102.029 209.981 101.837 210.843 101.582C211.737 101.326 212.472 101.007 213.046 100.624C213.621 100.209 213.909 99.7296 213.909 99.1868C213.909 98.9313 213.781 98.6119 213.525 98.2287C213.27 97.8455 212.807 97.4942 212.136 97.1749C211.466 96.8556 210.492 96.6959 209.214 96.6959ZM249.642 119.784C247.247 119.784 245.076 119.161 243.128 117.916C241.18 116.703 239.631 115.058 238.482 112.982C237.364 110.875 236.805 108.527 236.805 105.941C236.805 103.514 237.252 101.326 238.146 99.3784C239.04 97.3984 240.254 95.7059 241.787 94.3008C243.351 92.8958 245.124 91.826 247.104 91.0915C249.084 90.3251 251.159 89.9419 253.331 89.9419C255.151 89.9419 256.939 90.1973 258.696 90.7083C258.823 90.0377 258.935 89.367 259.031 88.6964L267.222 90.0856C266.999 90.6923 266.775 91.6024 266.551 92.8159C266.328 94.0294 266.136 95.3866 265.977 96.8875C265.849 98.3884 265.737 99.8893 265.641 101.39C265.546 102.891 265.498 104.248 265.498 105.462C265.498 106.452 265.562 107.426 265.689 108.384C265.849 109.31 266.168 110.076 266.647 110.683C267.126 111.258 267.861 111.545 268.851 111.545H269.521L268.324 119.88C266.216 119.88 264.476 119.513 263.103 118.778C261.729 118.076 260.628 117.118 259.797 115.904C258.424 117.437 256.86 118.459 255.103 118.97C253.347 119.513 251.527 119.784 249.642 119.784ZM244.661 106.899C244.82 108.432 245.443 109.661 246.529 110.587C247.647 111.481 249.052 111.928 250.744 111.928C252.373 111.928 253.73 111.497 254.816 110.635C255.901 109.741 256.796 108.527 257.498 106.995C257.466 106.484 257.45 105.957 257.45 105.414C257.45 104.296 257.482 103.147 257.546 101.965C257.61 100.783 257.69 99.6179 257.786 98.4682C256.444 97.9573 255.039 97.7018 253.57 97.7018C251.846 97.7018 250.297 98.0531 248.924 98.7556C247.583 99.4263 246.529 100.368 245.762 101.582C244.996 102.795 244.613 104.2 244.613 105.797C244.613 105.989 244.613 106.18 244.613 106.372C244.613 106.564 244.629 106.739 244.661 106.899Z" fill="#FFE9E9"/>
<path d="M292.939 245.258C291.765 245.258 290.748 244.914 289.889 244.227C289.03 243.539 288.286 242.695 287.656 241.693C287.026 240.69 286.468 239.717 285.981 238.772C285.093 236.968 284.248 234.992 283.447 232.845C282.645 230.697 281.943 228.463 281.342 226.144C280.741 223.825 280.282 221.534 279.968 219.272L287.742 218.155C287.971 220.818 288.329 223.324 288.816 225.672C289.302 228.02 289.875 230.11 290.534 231.943C291.192 233.775 291.865 235.264 292.552 236.41C292.695 236.61 292.824 236.81 292.939 237.011C293.082 237.211 293.154 237.311 293.154 237.311C293.211 237.311 293.44 237.011 293.841 236.41C295.101 234.205 296.275 231.628 297.363 228.678C298.451 225.729 299.396 222.164 300.198 217.983L307.757 219.487C307.013 222.178 306.325 224.526 305.695 226.531C305.065 228.506 304.45 230.239 303.849 231.728C303.247 233.217 302.646 234.563 302.045 235.765C301.443 236.939 300.813 238.085 300.155 239.201C299.725 239.974 299.167 240.834 298.48 241.778C297.821 242.723 297.034 243.539 296.117 244.227C295.201 244.914 294.141 245.258 292.939 245.258ZM323.988 245.429C321.697 245.429 319.693 245.057 317.975 244.313C316.285 243.568 314.882 242.552 313.766 241.263C312.649 239.946 311.818 238.443 311.274 236.753C310.73 235.064 310.458 233.288 310.458 231.427C310.458 229.537 310.788 227.791 311.446 226.187C312.133 224.555 313.064 223.138 314.238 221.935C315.441 220.732 316.844 219.802 318.447 219.143C320.051 218.456 321.798 218.112 323.687 218.112C325.663 218.112 327.496 218.456 329.185 219.143C330.875 219.83 332.349 220.79 333.609 222.021C334.869 223.252 335.843 224.698 336.53 226.359C337.246 228.02 337.604 229.824 337.604 231.771C337.604 236.095 336.415 239.459 334.039 241.864C331.662 244.241 328.312 245.429 323.988 245.429ZM323.945 238.471C326.035 238.471 327.625 237.884 328.713 236.71C329.829 235.536 330.388 233.847 330.388 231.642C330.388 229.666 329.787 228.077 328.584 226.874C327.381 225.672 325.806 225.07 323.859 225.07C322.685 225.07 321.611 225.385 320.638 226.015C319.664 226.617 318.877 227.433 318.276 228.463C317.703 229.466 317.416 230.582 317.416 231.814C317.416 232.902 317.631 233.961 318.061 234.992C318.519 236.023 319.235 236.868 320.208 237.526C321.182 238.156 322.427 238.471 323.945 238.471ZM351.751 245.3C349.604 245.3 347.656 244.742 345.91 243.625C344.163 242.537 342.774 241.063 341.743 239.201C340.741 237.311 340.24 235.207 340.24 232.887C340.24 230.711 340.641 228.75 341.443 227.003C342.245 225.228 343.333 223.71 344.707 222.45C346.11 221.19 347.699 220.231 349.475 219.573C351.25 218.885 353.111 218.542 355.058 218.542C356.691 218.542 358.294 218.771 359.869 219.229C359.984 218.628 360.084 218.026 360.17 217.425L367.514 218.671C367.314 219.215 367.113 220.031 366.913 221.119C366.713 222.207 366.541 223.424 366.398 224.77C366.283 226.115 366.183 227.461 366.097 228.807C366.011 230.153 365.968 231.37 365.968 232.458C365.968 233.346 366.025 234.219 366.14 235.078C366.283 235.908 366.569 236.596 366.999 237.14C367.428 237.655 368.087 237.913 368.975 237.913H369.576L368.502 245.386C366.612 245.386 365.052 245.057 363.821 244.398C362.589 243.769 361.601 242.91 360.857 241.821C359.626 243.196 358.223 244.112 356.648 244.57C355.073 245.057 353.441 245.3 351.751 245.3ZM347.284 233.747C347.427 235.121 347.986 236.223 348.959 237.054C349.962 237.856 351.221 238.256 352.739 238.256C354.199 238.256 355.416 237.87 356.39 237.097C357.363 236.295 358.165 235.207 358.795 233.832C358.767 233.374 358.752 232.902 358.752 232.415C358.752 231.413 358.781 230.382 358.838 229.323C358.895 228.263 358.967 227.218 359.053 226.187C357.85 225.729 356.59 225.5 355.273 225.5C353.727 225.5 352.338 225.815 351.107 226.445C349.904 227.046 348.959 227.891 348.272 228.979C347.585 230.067 347.241 231.327 347.241 232.759C347.241 232.93 347.241 233.102 347.241 233.274C347.241 233.446 347.256 233.603 347.284 233.747ZM372.089 245.258C372.204 242.881 372.29 240.504 372.347 238.128C372.404 235.751 372.433 233.403 372.433 231.084C372.404 228.965 372.361 226.874 372.304 224.813C372.275 222.722 372.204 220.704 372.089 218.756L379.305 218.542C379.334 219.601 379.377 220.689 379.434 221.806C380.35 220.661 381.41 219.744 382.612 219.057C383.844 218.341 385.247 217.983 386.822 217.983C387.423 217.983 388.196 218.069 389.141 218.241C390.086 218.413 391.045 218.742 392.019 219.229L391.203 226.488C390.487 226.058 389.714 225.758 388.883 225.586C388.082 225.385 387.409 225.285 386.865 225.285C385.032 225.285 383.471 226.115 382.183 227.776C380.923 229.408 380.064 231.685 379.606 234.606C379.606 236.61 379.577 238.528 379.52 240.361C379.491 242.165 379.42 243.797 379.305 245.258H372.089ZM397.43 206.816L404.216 207.16C404.13 208.219 404.03 209.565 403.915 211.197C403.829 212.801 403.744 214.576 403.658 216.523C403.572 218.441 403.486 220.389 403.4 222.364C403.314 224.34 403.242 226.23 403.185 228.034C403.157 229.809 403.142 231.37 403.142 232.716C403.142 233.088 403.142 233.446 403.142 233.789C403.142 234.133 403.157 234.434 403.185 234.691L396.442 234.52C396.413 234.033 396.399 233.489 396.399 232.887C396.399 232.258 396.399 231.57 396.399 230.826C396.399 228.478 396.427 225.915 396.485 223.138C396.571 220.36 396.685 217.568 396.828 214.762C397 211.927 397.201 209.279 397.43 206.816ZM399.62 245.472C398.503 245.472 397.559 245.071 396.785 244.27C396.041 243.497 395.669 242.537 395.669 241.392C395.669 240.247 396.055 239.287 396.828 238.514C397.63 237.741 398.604 237.354 399.749 237.354C400.866 237.354 401.796 237.755 402.541 238.557C403.314 239.359 403.701 240.361 403.701 241.564C403.701 242.738 403.328 243.683 402.584 244.398C401.839 245.114 400.851 245.472 399.62 245.472Z" fill="#FFE9E9"/>
<g filter="url(#filter0_d_14_78)">
<path d="M38.2208 184.313C38.2208 186.282 38.713 187.266 39.6974 187.266C40.2343 187.266 42.8294 186.103 47.4828 183.776L50.0332 188.743C41.9793 195.991 34.865 199.616 28.6904 199.616C24.8425 199.616 21.8894 198.318 19.8312 195.723C17.8624 193.128 16.8781 189.906 16.8781 186.058C16.8781 182.21 19.0258 171.696 23.3212 154.514C27.7061 137.243 30.1222 125.386 30.5697 118.943C30.5697 117.511 30.0775 115.811 29.0931 113.842C28.1982 111.784 27.2586 110.128 26.2743 108.876L24.9319 106.996L25.3346 104.983C30.4354 103.462 38.8472 102.701 50.5701 102.701C51.6439 104.759 52.1809 107.757 52.1809 111.694C52.1809 115.542 49.8542 126.773 45.2008 145.386C40.5475 164 38.2208 176.975 38.2208 184.313ZM61.469 198.408H58.9186C58.9186 194.202 60.1714 186.148 62.6771 174.246C65.2722 162.344 66.5698 155.588 66.5698 153.977C66.5698 151.024 65.317 147.892 62.8113 144.581L61.6032 142.97L61.7375 141.225C66.5698 139.883 74.3104 139.212 84.9594 139.212C86.2123 140.912 86.8387 143.686 86.8387 147.534C94.8925 141.538 101.291 138.541 106.034 138.541C112.029 138.541 115.564 141.628 116.638 147.803C119.054 145.834 122.186 143.82 126.034 141.762C129.972 139.614 133.462 138.541 136.504 138.541C139.636 138.541 142.231 139.57 144.29 141.628C146.348 143.597 147.377 146.371 147.377 149.95C147.377 153.53 146.393 159.436 144.424 167.669C142.455 175.902 141.471 181.45 141.471 184.313C141.471 187.087 141.873 188.475 142.679 188.475C143.216 188.475 145.05 187.624 148.182 185.924L149.659 185.119L152.075 189.817C149.748 192.144 146.571 194.381 142.545 196.528C138.607 198.587 135.117 199.616 132.075 199.616C125.363 199.616 122.007 195.813 122.007 188.206C122.007 185.432 122.947 179.884 124.826 171.561C126.795 163.15 127.779 157.691 127.779 155.185C127.779 152.59 127.018 151.293 125.497 151.293C122.902 151.293 119.949 152.277 116.638 154.246C116.459 156.035 115.206 162.121 112.879 172.501C110.642 182.882 109.524 190.935 109.524 196.663C106.929 197.826 100.843 198.408 91.2683 198.408C91.0893 197.423 90.9998 195.052 90.9998 191.293C90.9998 187.535 92.0289 181.137 94.0871 172.098C96.2348 163.06 97.3087 157.333 97.3087 154.917C97.3087 152.501 96.4586 151.293 94.7583 151.293C92.0737 151.293 89.1206 152.366 85.8991 154.514C85.7201 155.319 84.8252 159.257 83.2144 166.326C79.9929 180.465 78.3821 190.533 78.3821 196.528C75.2501 197.781 69.6124 198.408 61.469 198.408ZM196.422 142.433C196.601 142.254 197.093 141.091 197.898 138.943C202.104 138.943 207.742 140.196 214.811 142.702C212.574 150.129 210.784 157.915 209.442 166.058C208.1 174.112 207.428 179.884 207.428 183.374C207.428 186.774 207.786 188.475 208.502 188.475C209.039 188.475 211.008 187.624 214.408 185.924L216.019 185.119L218.435 189.817C217.63 190.533 216.556 191.428 215.214 192.501C213.961 193.575 211.545 195.052 207.965 196.931C204.386 198.721 201.164 199.616 198.301 199.616C192.753 199.616 189.531 197.11 188.636 192.099C182.909 197.11 177.719 199.616 173.065 199.616C168.501 199.616 164.609 197.826 161.387 194.246C158.255 190.667 156.689 185.029 156.689 177.333C156.689 165.342 159.15 155.901 164.072 149.011C168.994 142.031 174.945 138.541 181.925 138.541C186.936 138.541 191.768 139.838 196.422 142.433ZM181.119 188.206C183.267 188.206 185.683 187.356 188.368 185.656C188.994 173.038 191.097 160.554 194.677 148.205C191.992 147.042 189.71 146.46 187.831 146.46C184.609 146.46 181.835 149.637 179.508 155.991C177.271 162.255 176.153 169.19 176.153 176.796C176.153 184.403 177.808 188.206 181.119 188.206ZM237.828 212.502C234.875 214.292 233.398 216.037 233.398 217.737C233.398 219.437 234.338 220.287 236.217 220.287C238.186 220.287 240.378 219.348 242.794 217.468C245.21 215.679 247.224 212.726 248.835 208.609C244.539 209.415 240.87 210.712 237.828 212.502ZM277.694 139.48C278.052 139.838 278.231 140.644 278.231 141.896C278.231 143.06 278.142 144.357 277.963 145.789C277.784 147.131 277.471 150.219 277.023 155.051C276.576 159.883 276.128 164.089 275.681 167.669C271.117 207.938 258.857 228.073 238.901 228.073C235.68 228.073 232.727 227.223 230.042 225.522C227.447 223.822 226.15 221.63 226.15 218.945C226.15 215.365 228.342 212.099 232.727 209.146C237.112 206.193 243.018 203.911 250.445 202.3C250.445 202.211 250.714 200.958 251.251 198.542C251.788 196.126 252.146 194.157 252.325 192.636C246.955 196.573 241.899 198.542 237.156 198.542C232.503 198.542 228.655 196.707 225.613 193.038C222.66 189.369 221.183 183.508 221.183 175.454C221.183 164.895 223.554 156.125 228.297 149.145C233.04 142.075 239.304 138.541 247.09 138.541C251.474 138.541 255.815 139.614 260.11 141.762C264.674 140.151 269.596 139.346 274.875 139.346L277.694 139.48ZM253.13 146.46C249.282 146.46 246.239 149.592 244.002 155.856C241.765 162.031 240.646 168.922 240.646 176.528C240.646 184.045 242.347 187.803 245.747 187.803C247.984 187.803 250.624 186.953 253.667 185.253C256.173 170.219 257.962 157.825 259.036 148.071C256.53 146.997 254.562 146.46 253.13 146.46ZM310.835 146.863C310.835 150.621 309.627 157.109 307.21 166.326C304.794 175.454 303.586 181.45 303.586 184.313C303.586 187.087 303.989 188.475 304.794 188.475C305.331 188.475 307.389 187.624 310.969 185.924L312.58 185.119L314.862 189.817C314.056 190.533 312.982 191.428 311.64 192.501C310.298 193.575 307.792 195.052 304.123 196.931C300.454 198.721 297.054 199.616 293.921 199.616C290.789 199.616 288.329 198.676 286.539 196.797C284.749 194.828 283.854 192.233 283.854 189.011C283.854 185.7 284.973 179.884 287.21 171.561C289.447 163.15 290.566 157.691 290.566 155.185C290.566 151.427 289.402 147.892 287.076 144.581L285.868 142.97L286.002 141.225C290.745 139.883 298.441 139.212 309.09 139.212C310.253 140.554 310.835 143.104 310.835 146.863ZM295.532 124.581C293.743 122.791 292.848 120.419 292.848 117.466C292.848 114.513 294.056 111.918 296.472 109.681C298.978 107.444 301.841 106.325 305.063 106.325C308.284 106.325 310.79 107.22 312.58 109.01C314.369 110.8 315.264 113.171 315.264 116.124C315.264 118.988 313.967 121.538 311.372 123.775C308.866 126.012 306.047 127.131 302.915 127.131C299.783 127.131 297.322 126.281 295.532 124.581ZM323.246 198.408H320.695C320.695 194.202 321.948 186.148 324.454 174.246C327.049 162.344 328.347 155.588 328.347 153.977C328.347 151.024 327.094 147.892 324.588 144.581L323.38 142.97L323.514 141.225C328.347 139.883 336.087 139.212 346.736 139.212C347.9 140.733 348.526 143.507 348.615 147.534C356.401 141.538 362.978 138.541 368.347 138.541C371.569 138.541 374.119 139.659 375.999 141.896C377.967 144.134 378.952 146.952 378.952 150.353C378.952 153.664 377.923 159.436 375.864 167.669C373.806 175.902 372.777 181.45 372.777 184.313C372.777 187.087 373.135 188.475 373.851 188.475C374.388 188.475 376.267 187.624 379.489 185.924L381.099 185.119L383.515 189.817C382.71 190.533 381.636 191.428 380.294 192.501C378.952 193.575 376.446 195.052 372.777 196.931C369.198 198.721 365.976 199.616 363.112 199.616C356.58 199.616 353.313 195.902 353.313 188.475C353.313 185.342 354.298 179.571 356.267 171.159C358.325 162.747 359.354 157.333 359.354 154.917C359.354 152.501 358.593 151.293 357.072 151.293C354.477 151.293 351.3 152.411 347.542 154.648C347.273 156.17 346.378 160.197 344.857 166.729C341.725 180.779 340.159 190.712 340.159 196.528C337.027 197.781 331.389 198.408 323.246 198.408ZM427.787 142.433C427.966 142.254 428.458 141.091 429.263 138.943C433.469 138.943 439.107 140.196 446.176 142.702C443.939 150.129 442.149 157.915 440.807 166.058C439.465 174.112 438.793 179.884 438.793 183.374C438.793 186.774 439.151 188.475 439.867 188.475C440.404 188.475 442.373 187.624 445.773 185.924L447.384 185.119L449.8 189.817C448.995 190.533 447.921 191.428 446.579 192.501C445.326 193.575 442.91 195.052 439.33 196.931C435.751 198.721 432.529 199.616 429.666 199.616C424.118 199.616 420.896 197.11 420.001 192.099C414.274 197.11 409.084 199.616 404.43 199.616C399.866 199.616 395.974 197.826 392.752 194.246C389.62 190.667 388.054 185.029 388.054 177.333C388.054 165.342 390.515 155.901 395.437 149.011C400.359 142.031 406.31 138.541 413.29 138.541C418.301 138.541 423.133 139.838 427.787 142.433ZM412.484 188.206C414.632 188.206 417.048 187.356 419.733 185.656C420.359 173.038 422.462 160.554 426.042 148.205C423.357 147.042 421.075 146.46 419.196 146.46C415.974 146.46 413.2 149.637 410.873 155.991C408.636 162.255 407.518 169.19 407.518 176.796C407.518 184.403 409.173 188.206 412.484 188.206ZM483.153 145.252C479.573 145.252 476.71 148.25 474.562 154.246C472.414 160.152 471.34 166.505 471.34 173.306C471.34 184.045 474.651 189.414 481.273 189.414C483.421 189.414 485.703 188.922 488.119 187.938C490.535 186.864 492.459 185.835 493.891 184.85L495.905 183.24L498.992 187.401C498.366 188.027 497.515 188.877 496.442 189.951C495.368 190.935 493.131 192.457 489.73 194.515C486.419 196.573 483.063 198.005 479.663 198.81C477.425 200.421 475.457 202.39 473.756 204.716C472.146 207.043 471.34 209.28 471.34 211.428C471.34 213.665 472.414 214.784 474.562 214.784C476.71 214.784 479.26 213.934 482.213 212.233L483.69 211.294L486.106 215.052C485.479 215.679 484.629 216.439 483.555 217.334C482.482 218.319 480.334 219.571 477.112 221.093C473.891 222.703 470.893 223.509 468.119 223.509C465.345 223.509 463.107 222.659 461.407 220.958C459.707 219.348 458.857 217.2 458.857 214.515C458.857 211.92 459.975 209.236 462.213 206.461C464.45 203.777 467 201.45 469.864 199.481C463.779 198.855 459.215 196.305 456.172 191.83C453.219 187.356 451.743 181.539 451.743 174.38C451.743 163.731 454.651 155.096 460.468 148.474C466.374 141.852 473.935 138.541 483.153 138.541C489.148 138.541 493.891 139.928 497.381 142.702C500.961 145.386 502.75 148.742 502.75 152.769C502.75 156.707 501.498 160.107 498.992 162.971C496.755 162.971 494.16 162.478 491.207 161.494C488.253 160.51 486.016 159.302 484.495 157.87L486.508 146.058C485.703 145.521 484.584 145.252 483.153 145.252ZM545.632 142.433C545.811 142.254 546.303 141.091 547.109 138.943C551.314 138.943 556.952 140.196 564.022 142.702C561.784 150.129 559.995 157.915 558.652 166.058C557.31 174.112 556.639 179.884 556.639 183.374C556.639 186.774 556.997 188.475 557.713 188.475C558.25 188.475 560.218 187.624 563.619 185.924L565.23 185.119L567.646 189.817C566.84 190.533 565.767 191.428 564.424 192.501C563.171 193.575 560.755 195.052 557.176 196.931C553.596 198.721 550.375 199.616 547.511 199.616C541.963 199.616 538.741 197.11 537.847 192.099C532.119 197.11 526.929 199.616 522.276 199.616C517.712 199.616 513.819 197.826 510.598 194.246C507.466 190.667 505.9 185.029 505.9 177.333C505.9 165.342 508.36 155.901 513.282 149.011C518.204 142.031 524.155 138.541 531.135 138.541C536.146 138.541 540.979 139.838 545.632 142.433ZM530.33 188.206C532.477 188.206 534.893 187.356 537.578 185.656C538.205 173.038 540.307 160.554 543.887 148.205C541.202 147.042 538.92 146.46 537.041 146.46C533.82 146.46 531.046 149.637 528.719 155.991C526.482 162.255 525.363 169.19 525.363 176.796C525.363 184.403 527.019 188.206 530.33 188.206ZM517.041 126.728C518.294 114.021 522.813 107.667 530.598 107.667C533.641 107.667 538.07 108.473 543.887 110.084C549.793 111.605 553.954 112.366 556.37 112.366C558.787 112.366 560.487 112.097 561.471 111.56C562.456 111.023 563.574 109.681 564.827 107.533L568.988 108.339C568.63 112.455 567.914 115.9 566.84 118.674C564.782 123.954 560.934 126.594 555.297 126.594C553.238 126.594 549.39 125.833 543.753 124.312C538.205 122.701 534.043 121.896 531.269 121.896C528.585 121.896 526.571 122.299 525.229 123.104C523.976 123.82 522.678 125.341 521.336 127.668L517.041 126.728ZM588.917 199.616C582.743 199.616 577.91 197.468 574.42 193.173C570.93 188.788 569.185 182.703 569.185 174.917C569.185 164.984 571.825 156.438 577.105 149.279C582.474 142.12 589.857 138.541 599.253 138.541L604.085 138.809C605.607 138.004 607.307 137.601 609.186 137.601C616.256 137.601 619.79 144.268 619.79 157.601C623.459 157.422 627.173 156.93 630.932 156.125L633.079 155.588L633.885 160.823C630.932 162.076 626.949 163.194 621.938 164.179L619.254 164.716C617.553 174.112 614.108 182.3 608.918 189.28C603.727 196.17 597.061 199.616 588.917 199.616ZM596.166 188.072C599.924 188.072 603.28 185.656 606.233 180.823C609.276 175.991 611.379 170.89 612.542 165.521C602.967 165.521 598.179 161.942 598.179 154.783C598.179 151.919 598.761 149.234 599.924 146.729L600.595 145.386C600.237 145.207 599.79 145.118 599.253 145.118C598.716 145.118 598.313 145.207 598.045 145.386C595.808 146.818 593.705 150.174 591.736 155.454C589.767 160.733 588.783 166.774 588.783 173.575C588.783 183.24 591.244 188.072 596.166 188.072Z" fill="url(#paint0_linear_14_78)"/>
</g>
<path d="M485.659 0.746744C485.778 -0.248915 487.222 -0.248915 487.341 0.746744L488.332 9.09941C489.611 19.885 498.115 28.3886 508.9 29.6683L517.253 30.6594C518.249 30.7776 518.249 32.2224 517.253 32.3406L508.9 33.3317C498.115 34.6115 489.611 43.115 488.332 53.9005L487.341 62.2532C487.222 63.2489 485.778 63.2489 485.659 62.2532L484.668 53.9005C483.389 43.115 474.885 34.6115 464.099 33.3317L455.747 32.3406C454.751 32.2224 454.751 30.7776 455.747 30.6594L464.099 29.6683C474.885 28.3886 483.389 19.885 484.668 9.09941L485.659 0.746744Z" fill="#F2994A"/>
<path d="M123.659 226.747C123.778 225.751 125.222 225.751 125.341 226.747L126.332 235.099C127.611 245.885 136.115 254.389 146.9 255.668L155.253 256.659C156.249 256.778 156.249 258.222 155.253 258.341L146.9 259.332C136.115 260.611 127.611 269.115 126.332 279.9L125.341 288.253C125.222 289.249 123.778 289.249 123.659 288.253L122.668 279.9C121.389 269.115 112.885 260.611 102.099 259.332L93.7467 258.341C92.7511 258.222 92.7511 256.778 93.7467 256.659L102.099 255.668C112.885 254.389 121.389 245.885 122.668 235.099L123.659 226.747Z" fill="#F2994A"/>
<path d="M536.493 44.4504C536.564 43.8499 537.436 43.8499 537.507 44.4504L538.105 49.4885C538.877 55.9941 544.006 61.1233 550.511 61.8952L555.55 62.493C556.15 62.5643 556.15 63.4357 555.55 63.507L550.511 64.1048C544.006 64.8767 538.877 70.0059 538.105 76.5114L537.507 81.5495C537.436 82.1502 536.564 82.1502 536.493 81.5495L535.895 76.5114C535.123 70.0059 529.994 64.8767 523.489 64.1048L518.45 63.507C517.85 63.4357 517.85 62.5643 518.45 62.493L523.489 61.8952C529.994 61.1233 535.123 55.9941 535.895 49.4885L536.493 44.4504Z" fill="#FFE3CA"/>
<path d="M62.493 31.4504C62.5643 30.8499 63.4357 30.8499 63.507 31.4504L64.1048 36.4885C64.8767 42.9941 70.0059 48.1233 76.5114 48.8952L81.5495 49.493C82.1502 49.5643 82.1502 50.4357 81.5495 50.507L76.5114 51.1048C70.0059 51.8767 64.8767 57.0059 64.1048 63.5114L63.507 68.5495C63.4357 69.1502 62.5643 69.1502 62.493 68.5495L61.8952 63.5114C61.1233 57.0059 55.9941 51.8767 49.4885 51.1048L44.4504 50.507C43.8499 50.4357 43.8499 49.5643 44.4504 49.493L49.4885 48.8952C55.9941 48.1233 61.1233 42.9941 61.8952 36.4885L62.493 31.4504Z" fill="#FFE3CA"/>
<defs>
<filter id="filter0_d_14_78" x="0.209385" y="90.4772" width="650.344" height="158.709" filterUnits="userSpaceOnUse" color-interpolation-filters="sRGB">
<feFlood flood-opacity="0" result="BackgroundImageFix"/>
<feColorMatrix in="SourceAlpha" type="matrix" values="0 0 0 0 0 0 0 0 0 0 0 0 0 0 0 0 0 0 127 0" result="hardAlpha"/>
<feOffset dy="4.44499"/>
<feGaussianBlur stdDeviation="8.33436"/>
<feComposite in2="hardAlpha" operator="out"/>
<feColorMatrix type="matrix" values="0 0 0 0 0 0 0 0 0 0 0 0 0 0 0 0 0 0 0.1 0"/>
<feBlend mode="normal" in2="BackgroundImageFix" result="effect1_dropShadow_14_78"/>
<feBlend mode="normal" in="SourceGraphic" in2="effect1_dropShadow_14_78" result="shape"/>
</filter>
<linearGradient id="paint0_linear_14_78" x1="315.595" y1="102.005" x2="315.595" y2="210.907" gradientUnits="userSpaceOnUse">
<stop stop-color="white"/>
<stop offset="1" stop-color="#F9F9F9"/>
</linearGradient>
</defs>
</svg>
